<?xml version="1.0" encoding="UTF-8" standalone="no"?>
<!DOCTYPE svg PUBLIC "-//W3C//DTD SVG 1.1//EN" "http://www.w3.org/Graphics/SVG/1.1/DTD/svg11.dtd">
<svg version="1.1" xmlns="http://www.w3.org/2000/svg" xmlns:xlink="http://www.w3.org/1999/xlink" preserveAspectRatio="xMidYMid meet" viewBox="0 0 640 640" width="640" height="640"><defs><path d="M7.51 320.01C7.51 147.71 147.71 7.51 320.01 7.51C492.31 7.51 632.51 147.71 632.51 320.01C632.51 492.31 492.31 632.51 320.01 632.51C147.71 632.51 7.51 492.31 7.51 320.01Z" id="dkGJZorck"></path><path d="M337.52 501.66C308.46 501.66 292.31 501.66 289.08 501.66C289.08 501.66 289.22 472.92 289.08 453.22C222.79 467.5 204.29 416.89 204.29 416.89C192.19 392.66 180.06 380.56 180.06 380.56C155.83 366.18 180.06 368.46 180.06 368.46C204.29 368.46 216.39 392.69 216.39 392.69C237.65 428.78 275.47 422.97 289.05 416.92C289.05 404.82 294.35 386.5 301.15 380.59C248.25 374.64 204.22 344.26 204.22 283.7C204.22 223.14 216.38 211.04 228.49 198.91C226.05 192.94 215.9 170.86 228.86 138.35C228.86 138.35 252.66 138.35 276.89 174.68C288.89 162.68 325.33 162.58 337.45 162.58C349.53 162.58 385.99 162.68 397.99 174.68C422.22 138.35 446.08 138.35 446.08 138.35C459.04 170.86 448.9 192.94 446.45 198.91C458.55 211.01 470.68 223.14 470.68 283.7C470.68 344.26 426.71 374.62 373.79 380.59C380.61 386.5 385.89 407.34 385.89 416.92C385.89 422.57 385.9 450.82 385.92 501.66L385.92 501.66L337.52 501.66Z" id="bMDFCUl8V"></path></defs><g><g><g><use xlink:href="#dkGJZorck" opacity="1" fill="#ffffff" fill-opacity="1"></use><g><use xlink:href="#dkGJZorck" opacity="1" fill-opacity="0" stroke="#000000" stroke-width="1" stroke-opacity="0"></use></g></g><g><use xlink:href="#bMDFCUl8V" opacity="1" fill="#000000" fill-opacity="1"></use><g><use xlink:href="#bMDFCUl8V" opacity="1" fill-opacity="0" stroke="#000000" stroke-width="1" stroke-opacity="0"></use></g></g></g></g></svg>